{"title":"The.Darkness.2016.1080p.Blu-ray.x264.DTS-HD5.1.MSubs-DDR","uid":15711434,"size":8220584401,"categoryP":"video","categoryS":"hd___movies","magnet":"?xt=urn:btih:df8f4cf2c28d0db9273e5d9b3c3eccea6faf27fb&amp;dn=The.Darkness.2016.1080p.Blu-ray.x264.DTS-HD5.1.MSubs-DDR&amp;tr=udp%3A%2F%2Ftracker.leechers-paradise.org%3A6969&amp;tr=udp%3A%2F%2Fzer0day.ch%3A1337&amp;tr=udp%3A%2F%2Fopen.demonii.com%3A1337&amp;tr=udp%3A%2F%2Ftracker.coppersurfer.tk%3A6969&amp;tr=udp%3A%2F%2Fexodus.desync.com%3A6969","seeders":22,"leechers":20,"uploader":"SaM","files":3,"time":1472577839,"description":"- HollyWooD Movie-\r\n\r\nThe ness\r\n\r\n** 2016 **\r\n1080p / Blu-ray / x264\r\nEnglish DTS-HD 5.1\r\nEnglish, French &amp; Spanish subs\r\n\r\nForced &amp; Hearing Impaired subs included\r\n \nhttp://extraimago.com/image/wql9 \nhttp://extraimago.com/image/wql3 \nhttp://extraimago.com/image/wqlb \nhttp://extraimago.com/image/wqlh \nhttp://extraimago.com/image/wqld \nhttp://extraimago.com/image/wqlI \nhttp://extraimago.com/image/wqll \nhttp://extraimago.com/image/wqli \nhttp://extraimago.com/image/wqlm \nhttp://extraimago.com/image/wqlR \nhttp://extraimago.com/image/wqlQ \nhttp://extraimago.com/image/wqlL \nhttp://extraimago.com/image/wqly\r\n\r\nSOURCE: BD50 @ HDB\r\n\r\nFile size : 7.59 GiB\r\nDuration : 1 h 32 min\r\nOverall bit rate : 11.8 Mb/s\r\n\r\nVideo\r\nFormat : AVC\r\nFormat/Info : Advanced Video Codec\r\nFormat profile :   \r\nFormat settings, CABAC : Yes\r\nFormat settings, ReFrames : 5 frames\r\nCodec ID : V_MPEG4/ISO/AVC\r\nDuration : 1 h 32 min\r\nBit rate : 8 484 kb/s\r\nWidth : 1 920 pixels\r\nHeight : 804 pixels\r\nDisplay aspect ratio : 2.40:1\r\nFrame rate mode : Constant\r\nFrame rate : 23.976 (24000/1001) FPS\r\ncolor space : YUV\r\nChroma subsampling : 4:2:0\r\nBit depth : 8 bits\r\nScan type : Progressive\r\nBits/(Pixel*Frame) : 0.229\r\nStream size : 5.47 GiB (72%)\r\n\r\nAudio\r\nFormat : DTS\r\nFormat/Info : Digital Theater Systems\r\nFormat profile : MA / Core\r\nMode : 16\r\nFormat settings, Endianness : Big\r\nCodec ID : A_DTS\r\nDuration : 1 h 32 min\r\nBit rate mode : Variable / Constant\r\nBit rate : 3 266 kb/s / 1 509 kb/s\r\nChannel(s) : 6 channels\r\nChannel positions : Front: L C R, Side: L R, LFE\r\nSampling rate : 48.0 kHz\r\nFrame rate : 93.750 FPS (512 spf)\r\nBit depth : 24 bits\r\nCompression mode : Lossless / Lossy\r\nStream size : 2.11 GiB (28%)\r\nLanguage : English\r\nDefault : Yes\r\nForced : No\r\n\r\nChapters = Yes\r\nSample : Included","torrent":{"xt":"urn:btih:df8f4cf2c28d0db9273e5d9b3c3eccea6faf27fb","amp;dn":"The.Darkness.2016.1080p.Blu-ray.x264.DTS-HD5.1.MSubs-DDR","amp;tr":["udp%3A%2F%2Ftracker.leechers-paradise.org%3A6969","udp%3A%2F%2Fzer0day.ch%3A1337","udp%3A%2F%2Fopen.demonii.com%3A1337","udp%3A%2F%2Ftracker.coppersurfer.tk%3A6969","udp%3A%2F%2Fexodus.desync.com%3A6969"],"infoHash":"df8f4cf2c28d0db9273e5d9b3c3eccea6faf27fb","infoHashBuffer":{"type":"Buffer","data":[223,143,76,242,194,141,13,185,39,62,93,155,60,62,204,234,111,175,39,251]},"announce":[],"urlList":[]}}